<svg xmlns="http://www.w3.org/2000/svg" data-name="Layer 1" viewBox="0 0 64 80" x="0px" y="0px"><title>file document format</title><rect x="16" y="17.061" width="17.71" height="2"/><rect x="30.29" y="30.248" width="17.71" height="2"/><rect x="16" y="21.455" width="32" height="2"/><rect x="16" y="25.851" width="32" height="2"/><path d="M54,43.67V17.376l-.293-.293L39.417,2.793,39.124,2.5H14a4,4,0,0,0-4,4V40.242a1.991,1.991,0,0,0-1,1.722V56.5a5.006,5.006,0,0,0,5,5H50a5.006,5.006,0,0,0,5-5V45.393A1.991,1.991,0,0,0,54,43.67ZM32.69,57.507h-1.7V51.423l-1.74,6.084H27.794l-1.716-6.072v6.072h-1.7V48.579h2.557l1.584,5.736,1.595-5.736h2.58Zm7.453,0H34.011V48.579H40v1.632H35.919v1.824H38.9v1.632l-2.976.012v2.2h4.224ZM52,43.393H30.086l-2.4-2.746a2,2,0,0,0-1.505-.683H12V6.5a2,2,0,0,1,2-2H37.71V14.79a4,4,0,0,0,4,4H52Z"/><text x="0" y="79" fill="#000000" font-size="5px" font-weight="bold" font-family="'Helvetica Neue', Helvetica, Arial-Unicode, Arial, Sans-serif">Created by JunGSa</text><text x="0" y="84" fill="#000000" font-size="5px" font-weight="bold" font-family="'Helvetica Neue', Helvetica, Arial-Unicode, Arial, Sans-serif">from the Noun Project</text></svg>