<svg xmlns="http://www.w3.org/2000/svg" version="1.1" viewBox="0 0 34 42.5" x="0px" y="0px"><title>newspaper</title><path d="M31.511 1.608c0.302 0 0.535 0.233 0.535 0.535v26.602c0 2.015-1.63 3.646-3.645 3.646h-22.801c-2.015 0-3.646-1.632-3.646-3.646v-10.018c0-0.302 0.234-0.537 0.535-0.537h5.686v-16.047c0-0.302 0.233-0.535 0.535-0.535zM30.976 2.681h-21.729v26.064c0 0.665-0.18 1.284-0.492 1.822l-0.434 0.75h20.080c1.414 0 2.574-1.158 2.574-2.572v-25.564zM27.364 5.753c0.301 0 0.537 0.236 0.537 0.537v8.291c0 0.301-0.235 0.535-0.537 0.535h-6.217c-0.302 0-0.537-0.234-0.537-0.535v-8.291c0-0.301 0.236-0.537 0.537-0.537zM17.001 5.753c0.301 0 0.537 0.236 0.537 0.537s-0.235 0.535-0.537 0.535h-4.145c-0.302 0-0.537-0.234-0.537-0.535s0.236-0.537 0.537-0.537zM26.829 6.827h-5.146v7.217h5.146v-6.717zM17.001 9.899c0.302 0 0.537 0.234 0.537 0.535s-0.236 0.537-0.537 0.537h-4.145c-0.301 0-0.537-0.236-0.537-0.537s0.235-0.535 0.537-0.535zM17.001 14.044c0.301 0 0.537 0.236 0.537 0.537s-0.235 0.535-0.537 0.535h-4.145c-0.302 0-0.537-0.234-0.537-0.535s0.236-0.537 0.537-0.537zM8.175 19.263h-5.146v9.482c0 1.415 1.16 2.572 2.574 2.572s2.572-1.158 2.572-2.572v-8.982z"/><text x="0" y="49" fill="#000000" font-size="5px" font-weight="bold" font-family="'Helvetica Neue', Helvetica, Arial-Unicode, Arial, Sans-serif">Created by shuai tawf</text><text x="0" y="54" fill="#000000" font-size="5px" font-weight="bold" font-family="'Helvetica Neue', Helvetica, Arial-Unicode, Arial, Sans-serif">from the Noun Project</text></svg>