<svg xmlns="http://www.w3.org/2000/svg" xmlns:xlink="http://www.w3.org/1999/xlink" version="1.1" x="0px" y="0px" viewBox="0 0 64 80" style="enable-background:new 0 0 64 64;" xml:space="preserve"><g><path d="M58,27c2.757,0,5-2.243,5-5V6c0-2.757-2.243-5-5-5H38c-2.757,0-5,2.243-5,5v16c0,2.757,2.243,5,5,5h7v16.056   c0,0.455-0.105,0.91-0.305,1.318l-0.839-4.192C43.256,37.18,40.598,35,37.535,35C36.137,35,35,36.138,35,37.535   c0,0.502,0.147,0.988,0.426,1.406l1.029,1.544c0.381,0.571,0.627,1.233,0.712,1.914l0.708,5.671   c0.108,0.862,0.44,1.685,0.961,2.379L41,53.333V55h-2v8h24v-8h-2v-1.764l1.472-2.944C62.817,49.602,63,48.828,63,48.056V36   c0-1.654-1.346-3-3-3c-0.395,0-0.77,0.081-1.116,0.22C58.539,31.945,57.383,31,56,31c-0.395,0-0.77,0.081-1.116,0.22   C54.539,29.945,53.383,29,52,29c-0.352,0-0.686,0.072-1,0.184V27H58z M38,25c-1.654,0-3-1.346-3-3V6c0-1.654,1.346-3,3-3h20   c1.654,0,3,1.346,3,3v16c0,1.654-1.346,3-3,3h-7v-2.085C51.24,22.959,51.482,23,51.726,23c1.073,0,2.123-0.435,2.882-1.194   L56,20.414c0.645-0.645,1-1.502,1-2.414s-0.355-1.77-1-2.414l-1.763-1.763C53.707,13.292,53.001,13,52.25,13h-0.132   c-1.07,0-2.033,0.595-2.512,1.553C49.468,14.829,49.19,15,48.882,15H48.75c-0.216,0-0.419-0.084-0.572-0.237l-0.94-0.94   C47.084,13.67,47,13.467,47,13.25v-0.132c0-0.309,0.171-0.586,0.447-0.724C48.405,11.915,49,10.952,49,9.882V9.75   c0-0.75-0.292-1.456-0.823-1.986L46.414,6c-1.289-1.29-3.539-1.29-4.828,0l-1.392,1.392C39.435,8.151,39,9.201,39,10.369   c0,0.555,0.111,1.095,0.33,1.605c1.388,3.238,3.576,6.02,6.371,8.122C45.27,20.616,45,21.274,45,22v3H38z M47.668,19.034   c-2.88-1.944-5.128-4.645-6.5-7.848C41.057,10.927,41,10.651,41,10.274c0-0.546,0.222-1.082,0.608-1.468L43,7.414   c0.526-0.526,1.474-0.526,2,0l1.763,1.763C46.916,9.33,47,9.533,47,9.75v0.132c0,0.309-0.171,0.586-0.447,0.724   C45.595,11.085,45,12.048,45,13.118v0.132c0,0.75,0.292,1.456,0.823,1.986l0.94,0.94C47.293,16.708,47.999,17,48.75,17h0.132   c1.07,0,2.033-0.595,2.512-1.553C51.532,15.171,51.81,15,52.118,15h0.132c0.216,0,0.419,0.084,0.572,0.237L54.586,17   C54.849,17.263,55,17.628,55,18s-0.151,0.737-0.414,1l-1.392,1.392c-0.613,0.613-1.621,0.777-2.396,0.389l-0.086-0.043   C50.234,19.715,49.202,19,48,19C47.886,19,47.778,19.021,47.668,19.034z M61,61H41v-4h20V61z M52,31c0.551,0,1,0.449,1,1v2v6h2v-6   c0-0.552,0.449-1,1-1s1,0.448,1,1v2v4h2v-4c0-0.552,0.449-1,1-1s1,0.448,1,1v12.056c0,0.463-0.109,0.928-0.317,1.342L59,52.764V55   H43v-2.333l-2.563-3.417c-0.312-0.417-0.512-0.911-0.577-1.428l-0.708-5.671c-0.124-0.988-0.481-1.948-1.033-2.775l-1.029-1.544   c-0.059-0.088-0.09-0.19-0.09-0.297C37,37.24,37.24,37,37.535,37c2.112,0,3.946,1.503,4.36,3.574L43.18,47h2.438l0.854-1.708   C46.817,44.602,47,43.828,47,43.056V22c0-0.551,0.449-1,1-1s1,0.449,1,1v10v8h2v-8C51,31.449,51.449,31,52,31z"/><path d="M26,33H6c-2.757,0-5,2.243-5,5v16c0,2.757,2.243,5,5,5h20c2.757,0,5-2.243,5-5V38C31,35.243,28.757,33,26,33z M29,54   c0,1.654-1.346,3-3,3H6c-1.654,0-3-1.346-3-3V38c0-1.654,1.346-3,3-3h20c1.654,0,3,1.346,3,3V54z"/><path d="M26,1H6C3.243,1,1,3.243,1,6v16c0,2.757,2.243,5,5,5h20c2.757,0,5-2.243,5-5V6C31,3.243,28.757,1,26,1z M29,22   c0,1.654-1.346,3-3,3H6c-1.654,0-3-1.346-3-3V6c0-1.654,1.346-3,3-3h20c1.654,0,3,1.346,3,3V22z"/><path d="M16,5c-4.411,0-8,3.589-8,8v2c0,4.411,3.589,8,8,8v-2c-3.309,0-6-2.691-6-6v-2c0-3.309,2.691-6,6-6s6,2.691,6,6v5   c0,0.551-0.449,1-1,1s-1-0.449-1-1v-3v-1v-1c0-2.206-1.794-4-4-4s-4,1.794-4,4v2c0,2.206,1.794,4,4,4   c0.749,0,1.442-0.22,2.042-0.58C18.249,19.875,19.49,21,21,21c1.654,0,3-1.346,3-3v-5C24,8.589,20.411,5,16,5z M16,17   c-1.103,0-2-0.897-2-2v-2c0-1.103,0.897-2,2-2s2,0.897,2,2v1v1C18,16.103,17.103,17,16,17z"/><path d="M5,53h22V39H5V53z M12.666,47.948C13.637,48.629,14.789,49,16,49c1.211,0,2.363-0.371,3.334-1.052L23.149,51H8.851   L12.666,47.948z M20.83,46.584l4.17-4.17v7.505L20.83,46.584z M18.707,45.879c-1.446,1.445-3.968,1.445-5.414,0L8.414,41h15.172   L18.707,45.879z M11.169,46.583L7,49.919v-7.505L11.169,46.583z"/></g><text x="0" y="79" fill="#000000" font-size="5px" font-weight="bold" font-family="'Helvetica Neue', Helvetica, Arial-Unicode, Arial, Sans-serif">Created by Eucalyp</text><text x="0" y="84" fill="#000000" font-size="5px" font-weight="bold" font-family="'Helvetica Neue', Helvetica, Arial-Unicode, Arial, Sans-serif">from the Noun Project</text></svg>