<svg xmlns="http://www.w3.org/2000/svg" data-name="Layer 1" viewBox="0 0 64 80" x="0px" y="0px"><title>project-idea-creative-information-plan</title><path d="M48.29688,26.43213a19.919,19.919,0,0,0-4.72657-4.72656.9994.9994,0,0,0-1.00781-.08936l-3.25684,1.54a17.308,17.308,0,0,0-1.97461-.81885l-1.21191-3.65234A1.00017,1.00017,0,0,0,35.16992,18H28.83008a1.00017,1.00017,0,0,0-.94922.68506L26.6543,22.38135l-1.918.79492L21.4375,21.61621a1.00236,1.00236,0,0,0-1.00488.0874,19.93654,19.93654,0,0,0-4.72754,4.72559,1.00258,1.00258,0,0,0-.08985,1.0083l1.56055,3.29932-.79492,1.918-3.69531,1.22607A1.00016,1.00016,0,0,0,12,34.83008v6.33984a1.00016,1.00016,0,0,0,.68555.94922l3.69531,1.22607.79492,1.918L15.61523,48.5625a1.0017,1.0017,0,0,0,.08789,1.00537,19.919,19.919,0,0,0,4.72657,4.72656.99845.99845,0,0,0,1.02343.08155l2.99024-1.48-.88672-1.792L21.1123,52.31348a17.92825,17.92825,0,0,1-3.43457-3.4336l1.4961-3.16211a1.00146,1.00146,0,0,0,.01953-.81054l-1.13965-2.75a.99941.99941,0,0,0-.60937-.56641L14,40.44824V35.55176l3.44434-1.14258a.99941.99941,0,0,0,.60937-.56641l1.13965-2.75a1.00146,1.00146,0,0,0-.01953-.81054l-1.49512-3.16016a17.91935,17.91935,0,0,1,3.44141-3.44385l3.16211,1.49561a.99785.99785,0,0,0,.81054.02l2.75-1.14014a1.0011,1.0011,0,0,0,.56641-.60889L29.55176,20h4.89648l1.14258,3.44482a1.00224,1.00224,0,0,0,.65039.63965,15.27023,15.27023,0,0,1,2.58106,1.06983.99871.99871,0,0,0,.8955.01953l3.16016-1.49463a17.91984,17.91984,0,0,1,3.44434,3.44092l-1.4961,3.16211a.99929.99929,0,0,0,.02051.895,15.33517,15.33517,0,0,1,1.06934,2.581.99981.99981,0,0,0,.63964.65088L50,35.55176v4.89648l-3.44434,1.14258a.99981.99981,0,0,0-.63964.65088,15.33517,15.33517,0,0,1-1.06934,2.581.99929.99929,0,0,0-.02051.895l1.49512,3.16016a17.92831,17.92831,0,0,1-3.43164,3.43652L40.44336,51.104l-.88672,1.792,2.99024,1.48a.99906.99906,0,0,0,1.0205-.07959,19.93654,19.93654,0,0,0,4.72754-4.72559,1.00258,1.00258,0,0,0,.08985-1.0083l-1.54-3.25635a17.34327,17.34327,0,0,0,.81836-1.97558l3.65136-1.21143A1.00016,1.00016,0,0,0,52,41.16992V34.83008a1.00016,1.00016,0,0,0-.68555-.94922l-3.65136-1.21143a17.30641,17.30641,0,0,0-.81836-1.97558l1.54-3.25635A1.0017,1.0017,0,0,0,48.29688,26.43213Z"/><path d="M27,58v3a.99974.99974,0,0,0,1,1h8a.99974.99974,0,0,0,1-1V58a.99974.99974,0,0,0,1-1V55.50439a17.53938,17.53938,0,0,1,3.65918-10.39257A11.87984,11.87984,0,0,0,44,38a12.00121,12.00121,0,1,0-21.43848,7.40234A17.09114,17.09114,0,0,1,26,55.97314V57A.99974.99974,0,0,0,27,58Zm8,2H29V58h6ZM24.13379,44.165a9.95653,9.95653,0,0,1-2.00977-7.7627,10.07291,10.07291,0,0,1,8.72071-8.33789,9.99655,9.99655,0,0,1,9.207,15.8584A19.51751,19.51751,0,0,0,36,55.50439V56H33V47.89893a5,5,0,1,0-2,0V56H28v-.02686A19.102,19.102,0,0,0,24.13379,44.165ZM32,46a3,3,0,1,1,3-3A3.00328,3.00328,0,0,1,32,46Z"/><path d="M24,5.05176V9.94824A3.05538,3.05538,0,0,0,27.05176,13h2.41308L31.168,15.55469a.99995.99995,0,0,0,1.66406,0L34.53516,13h2.41308A3.05538,3.05538,0,0,0,40,9.94824V5.05176A3.05538,3.05538,0,0,0,36.94824,2H27.05176A3.05538,3.05538,0,0,0,24,5.05176Zm2,0A1.05277,1.05277,0,0,1,27.05176,4h9.89648A1.05277,1.05277,0,0,1,38,5.05176V9.94824A1.05277,1.05277,0,0,1,36.94824,11H34a1.00028,1.00028,0,0,0-.832.44531L32,13.19727l-1.168-1.752A1.00028,1.00028,0,0,0,30,11H27.05176A1.05277,1.05277,0,0,1,26,9.94824Z"/><path d="M53,2a9,9,0,1,0,9,9A9.01016,9.01016,0,0,0,53,2Zm0,16a7,7,0,1,1,7-7A7.00818,7.00818,0,0,1,53,18Z"/><path d="M11,20a9,9,0,1,0-9-9A9.01016,9.01016,0,0,0,11,20ZM11,4a7,7,0,1,1-7,7A7.00818,7.00818,0,0,1,11,4Z"/><path d="M53,10a1,1,0,0,1,0-2h2V6H53a3,3,0,0,0,0,6,1,1,0,0,1,0,2H51v2h2a3,3,0,0,0,0-6Z"/><rect x="28" y="6" width="4" height="2"/><rect x="34" y="6" width="2" height="2"/><rect x="7" y="11" width="2" height="3"/><rect x="10" y="9" width="2" height="5"/><rect x="13" y="7" width="2" height="7"/><rect x="58" y="21" width="2" height="2"/><rect x="58" y="25" width="2" height="2"/><rect x="58" y="29" width="2" height="2"/><rect x="58" y="33" width="2" height="2"/><rect x="58" y="37" width="2" height="2"/><rect x="54" y="37" width="2" height="2"/><rect x="4" y="21" width="2" height="2"/><rect x="4" y="25" width="2" height="2"/><rect x="4" y="29" width="2" height="2"/><rect x="4" y="33" width="2" height="2"/><rect x="4" y="37" width="2" height="2"/><rect x="8" y="37" width="2" height="2"/><rect x="4" y="56" width="2" height="2"/><rect x="4" y="60" width="2" height="2"/><rect x="6" y="58" width="2" height="2"/><rect x="2" y="58" width="2" height="2"/><rect x="58" y="56" width="2" height="2"/><rect x="58" y="60" width="2" height="2"/><rect x="60" y="58" width="2" height="2"/><rect x="56" y="58" width="2" height="2"/><rect x="31" y="42" width="2" height="2"/><text x="0" y="79" fill="#000000" font-size="5px" font-weight="bold" font-family="'Helvetica Neue', Helvetica, Arial-Unicode, Arial, Sans-serif">Created by Nithinan Tatah</text><text x="0" y="84" fill="#000000" font-size="5px" font-weight="bold" font-family="'Helvetica Neue', Helvetica, Arial-Unicode, Arial, Sans-serif">from the Noun Project</text></svg>